Coordinates
version=1
nRows=4
nColumns=107
inDegrees=yes

Units are S.I. units (second, meters, Newtons, ...)
If the header above contains a line with 'inDegrees', this indicates whether rotational values are in degrees (yes) or radians (no).

endheader
time	sternoclavicular_r2	sternoclavicular_r3	unrotscap_r3	unrotscap_r2	acromioclavicular_r2	acromioclavicular_r3	acromioclavicular_r1	unrothum_r1	unrothum_r3	unrothum_r2	elv_angle	shoulder_elv	shoulder1_r2	shoulder_rot	elbow_flexion	pro_sup	deviation	flexion	proximal_distal_r1	proximal_distal_r3	cmc_flexion	cmc_abduction	mp_flexion	ip_flexion	mcp2_flexion	mcp2_abduction	pm2_flexion	md2_flexion	mcp3_flexion	mcp3_abduction	pm3_flexion	md3_flexion	mcp4_flexion	mcp4_abduction	pm4_flexion	md4_flexion	mcp5_flexion	mcp5_abduction	pm5_flexion	md5_flexion	bicpt_tx	bicpt_ty	bicpt_tz	bicpt2_tx	bicpt2_ty	bicpt2_tz	ptpt_tx	ptpt_ty	ptpt_tz	FCUpt_tx	FCUpt_ty	FCUpt_tz	EDCpt_tx	EDCpt_ty	EDCpt_tz	APLpt_tx	APLpt_ty	APLpt_tz	FPLpt_tx	FPLpt_ty	FPLpt_tz	FPLpt2_tx	FPLpt2_ty	FPLpt2_tz	PEC1pt2_tx	PEC1pt2_ty	PEC1pt2_tz	PEC1pt3_tx	PEC1pt3_ty	PEC1pt3_tz	PEC2pt2_tx	PEC2pt2_ty	PEC2pt2_tz	PEC2pt3_tx	PEC2pt3_ty	PEC2pt3_tz	PEC3pt2_tx	PEC3pt2_ty	PEC3pt2_tz	PEC3pt3_tx	PEC3pt3_ty	PEC3pt3_tz	DELT2pt2a_tx	DELT2pt2a_ty	DELT2pt2a_tz	DELT2pt2_tx	DELT2pt2_ty	DELT2pt2_tz	LAT1pt2_tx	LAT1pt2_ty	LAT1pt2_tz	LAT1pt3_tx	LAT1pt3_ty	LAT1pt3_tz	LAT2pt2_tx	LAT2pt2_ty	LAT2pt2_tz	LAT2pt3_tx	LAT2pt3_ty	LAT2pt3_tz	LAT3pt2_tx	LAT3pt2_ty	LAT3pt2_tz	LAT3pt3_tx	LAT3pt3_ty	LAT3pt3_tz
      1.46666667	     -0.29913403	      0.12669906	     -0.12669906	      0.29913403	     -0.06056856	      0.48949377	      0.22002408	     -0.22002408	     -0.48949377	      0.06056856	    108.83456850	     70.82264123	     -1.89952156	    -67.89887534	     32.94476174	     88.36733856	      0.42382200	     -1.18866436	      0.42816174	     -0.59433218	    -12.12740620	     18.08225152	    -17.29223105	     -4.24612142	     19.46005136	     -8.97381271	     18.28054389	    -18.37585757	     -4.26430366	     -9.52578247	     23.96372484	     15.75868328	    -29.91707642	     -6.84277534	     29.77914182	     21.89364939	    -55.45501201	    -13.66362868	     17.37610922	      5.25120762	      0.00098971	     -0.03137597	     -0.00490821	      0.01398879	     -0.01914961	     -0.00066671	      0.00102065	     -0.06912199	     -0.00716846	      0.01301082	     -0.18215677	      0.00015111	     -0.01060406	      0.00370879	     -0.00083475	      0.00003292	      0.00001317	      0.00006583	      0.00004213	      0.00012639	      0.00007110	     -0.00200616	      0.00038489	      0.00046187	      0.00232141	      0.00814461	      0.00566582	     -0.00759377	      0.01833521	     -0.01739091	      0.00232141	      0.00814461	      0.00566582	      0.00051150	      0.01699745	     -0.00893153	      0.00374039	      0.00452911	      0.01543826	      0.00000000	      0.00670203	      0.00000000	     -0.00664946	     -0.03072918	     -0.00551936	      0.02607280	     -0.00215471	     -0.03138311	     -0.00082626	      0.01384977	     -0.00566582	      0.00228206	      0.01998774	     -0.01652530	     -0.00554778	      0.01200051	     -0.00507563	     -0.01156771	      0.02533879	     -0.02836843	     -0.02171896	      0.01341697	     -0.00680685	     -0.01440062	      0.02927338	     -0.03545070
      1.50000000	     -0.29930515	      0.12677153	     -0.12677153	      0.29930515	     -0.06060320	      0.48977378	      0.22014994	     -0.22014994	     -0.48977378	      0.06060320	    108.77988572	     70.86315387	     -1.89856717	    -67.73050849	     32.84684608	     88.30004312	      0.42380196	     -1.18797440	      0.42814844	     -0.59398720	    -12.20500075	     18.36415745	    -18.38343185	     -3.62980583	     19.54201896	     -9.02973832	     18.07147844	    -17.23155273	     -4.55048431	     -9.23951980	     24.04189715	     15.22106217	    -30.72381357	     -6.18779963	     29.91777577	     22.00931801	    -55.17664617	    -13.71014335	     16.93780662	      5.30610109	      0.00098647	     -0.03136475	     -0.00490640	      0.01399610	     -0.01912301	     -0.00067845	      0.00102562	     -0.06911877	     -0.00716304	      0.01300304	     -0.18215910	      0.00014914	     -0.01059598	      0.00370505	     -0.00083251	      0.00003358	      0.00001343	      0.00006716	      0.00004299	      0.00012896	      0.00007254	     -0.00203377	      0.00038788	      0.00046546	      0.00232274	      0.00814927	      0.00566906	     -0.00759811	      0.01834570	     -0.01740086	      0.00232274	      0.00814927	      0.00566906	      0.00051179	      0.01700717	     -0.00893664	      0.00374200	      0.00453171	      0.01544254	      0.00000000	      0.00670974	      0.00000000	     -0.00665327	     -0.03074676	     -0.00552577	      0.02608330	     -0.00214849	     -0.03126752	     -0.00082674	      0.01385770	     -0.00566906	      0.00228337	      0.01999917	     -0.01653475	     -0.00555095	      0.01200738	     -0.00507853	     -0.01157432	      0.02535328	     -0.02838465	     -0.02173139	      0.01342464	     -0.00681074	     -0.01440885	      0.02929013	     -0.03547098
      1.53333333	     -0.29948790	      0.12684894	     -0.12684894	      0.29948790	     -0.06064021	      0.49007283	      0.22028436	     -0.22028436	     -0.49007283	      0.06064021	    108.77739410	     70.90642224	     -1.89852368	    -67.68616352	     32.75874860	     88.28389597	      0.42352655	     -1.18699936	      0.42796570	     -0.59349968	    -12.37913552	     18.95240151	    -18.85310647	     -3.95138151	     19.66283638	     -8.95147985	     18.29545608	    -17.45281638	     -4.94138155	     -8.83260517	     24.32163967	     15.38196603	    -31.29658879	     -5.61953091	     29.92615008	     21.57196532	    -54.94751544	    -13.74670262	     16.88138877	      5.28784887	      0.00098356	     -0.03135465	     -0.00490478	      0.01399786	     -0.01909907	     -0.00068127	      0.00102682	     -0.06911800	     -0.00716174	      0.01300117	     -0.18215965	      0.00014867	     -0.01059404	      0.00370415	     -0.00083197	      0.00003452	      0.00001381	      0.00006905	      0.00004419	      0.00013258	      0.00007457	     -0.00209672	      0.00039461	      0.00047353	      0.00232416	      0.00815425	      0.00567252	     -0.00760275	      0.01835690	     -0.01741148	      0.00232416	      0.00815425	      0.00567252	      0.00051210	      0.01701756	     -0.00894210	      0.00374372	      0.00453447	      0.01544711	      0.00000000	      0.00671798	      0.00000000	     -0.00665733	     -0.03076553	     -0.00553262	      0.02608600	     -0.00214685	     -0.03123706	     -0.00082724	      0.01386616	     -0.00567252	      0.00228476	      0.02001138	     -0.01654485	     -0.00555434	      0.01201471	     -0.00508163	     -0.01158139	      0.02536876	     -0.02840199	     -0.02174465	      0.01343284	     -0.00681490	     -0.01441765	      0.02930801	     -0.03549263
      1.56666667	     -0.29972519	      0.12694944	     -0.12694944	      0.29972519	     -0.06068825	      0.49046112	      0.22045890	     -0.22045890	     -0.49046112	      0.06068825	    108.79318750	     70.96260204	     -1.89879933	    -67.66541021	     32.60681627	     88.30742889	      0.42341223	     -1.18690364	      0.42788978	     -0.59345182	    -12.46725777	     19.07997277	    -19.18111619	     -4.87036351	     19.76934008	     -8.85704385	     18.22885338	    -17.55812965	     -5.04688498	     -8.52046528	     24.09303235	     15.86480685	    -31.57584812	     -4.96694961	     29.55529636	     21.94762884	    -54.53208225	    -13.78952755	     17.01281124	      5.26235184	      0.00097853	     -0.03133724	     -0.00490197	      0.01399530	     -0.01905780	     -0.00067717	      0.00102508	     -0.06911912	     -0.00716364	      0.01300389	     -0.18215884	      0.00014935	     -0.01059687	      0.00370546	     -0.00083275	      0.00003462	      0.00001385	      0.00006923	      0.00004431	      0.00013293	      0.00007477	     -0.00212911	      0.00039803	      0.00047764	      0.00232600	      0.00816071	      0.00567701	     -0.00760877	      0.01837144	     -0.01742528	      0.00232600	      0.00816071	      0.00567701	      0.00051251	      0.01703104	     -0.00894918	      0.00374596	      0.00453807	      0.01545303	      0.00000000	      0.00672869	      0.00000000	     -0.00666261	     -0.03078991	     -0.00554152	      0.02608730	     -0.00214608	     -0.03122282	     -0.00082790	      0.01387714	     -0.00567701	      0.00228657	      0.02002724	     -0.01655795	     -0.00555874	      0.01202423	     -0.00508566	     -0.01159057	      0.02538886	     -0.02842449	     -0.02176188	      0.01344348	     -0.00682030	     -0.01442907	      0.02933123	     -0.03552075
